<svg width="118" height="93" viewBox="0 0 118 93" fill="none" xmlns="http://www.w3.org/2000/svg">
<path d="M115.583 44.1071C113.961 39.026 111.485 34.7123 109.414 31.6512C108.309 30.0177 107.319 28.7425 106.628 27.9017C108.433 26.6265 110.018 25.1623 111.279 23.4582C112.926 21.2379 114.006 18.6056 114.294 15.584C114.344 15.0536 114.062 14.5515 113.58 14.3201C113.101 14.086 112.534 14.1791 112.15 14.5486H112.147L112.142 14.5543C112.867 12.6922 113.456 10.2603 113.456 7.28386C113.456 5.67009 113.284 3.89833 112.875 1.97704C112.759 1.441 112.317 1.04038 111.772 0.981131C111.228 0.919063 110.709 1.21248 110.481 1.71184C108.825 5.30332 106.583 8.40955 103.213 10.9938C101.1 12.6132 98.5308 14.0295 95.3607 15.1975C90.5154 12.5427 84.9424 11.4622 79.4371 11.4622C75.4688 11.4622 71.5288 12.0208 67.8878 12.98C64.5823 13.849 61.5307 15.0508 58.9191 16.4784C56.3074 15.0508 53.2558 13.849 49.9504 12.98C46.3093 12.0208 42.3693 11.4622 38.4011 11.4622C32.8901 11.4622 27.3143 12.5427 22.4662 15.2032C19.2905 14.0323 16.7155 12.6161 14.6002 10.9938C11.2271 8.40955 8.98774 5.30332 7.3322 1.71184C7.10375 1.21248 6.58481 0.919063 6.04048 0.981131C5.49334 1.04038 5.05336 1.441 4.93773 1.97704C4.52878 3.89833 4.35674 5.67009 4.35674 7.28386C4.35674 10.2603 4.94337 12.6922 5.67102 14.5543L5.66256 14.5486C5.42001 14.3145 5.10413 14.1932 4.78261 14.1932C4.59647 14.1932 4.40751 14.2327 4.22982 14.3201C3.75037 14.5515 3.46833 15.0536 3.5191 15.584C3.80677 18.6056 4.88696 21.2379 6.53404 23.4582C7.76653 25.1256 9.30926 26.5673 11.0663 27.8199C11.1058 27.8481 11.1509 27.8763 11.1932 27.9074C10.4938 28.7622 9.53771 30.0036 8.4829 31.5553C6.37046 34.6643 3.85472 39.0232 2.2302 44.1071C0.918742 48.2206 0.233398 52.6076 0.233398 56.9947C0.233398 63.0492 1.53922 69.1065 4.35674 74.3992C5.48488 76.5151 6.85838 78.5098 8.48572 80.321C8.76775 80.637 9.05825 80.9473 9.35721 81.2492C9.48412 81.3818 9.61386 81.5088 9.74641 81.6386C9.91845 81.8078 10.0933 81.9743 10.271 82.1379C11.6163 83.3934 13.1083 84.5332 14.7441 85.5376C15.6268 86.0821 16.5519 86.5871 17.5165 87.0469C18.2723 87.4081 19.0225 87.7269 19.7614 88.0118C23.521 89.4563 27.0718 89.967 30.3631 89.9641C34.0831 89.9613 37.4788 89.3293 40.5587 88.7199C43.6385 88.1077 46.4109 87.5294 48.8505 87.535C49.6825 87.535 50.4778 87.5999 51.2393 87.7438C52.3843 87.961 53.4561 88.3532 54.5222 89.0049C55.5403 89.6312 56.5528 90.503 57.5738 91.7246C57.8558 92.1788 58.3522 92.4638 58.8937 92.4638H58.9191C59.4634 92.4638 59.9598 92.176 60.239 91.719C61.6181 90.0742 62.9747 89.0641 64.3595 88.4378C65.0787 88.1106 65.8092 87.8877 66.5735 87.7438C67.335 87.5999 68.1275 87.535 68.9595 87.535C71.3991 87.5294 74.1715 88.1077 77.2541 88.7199C80.3339 89.3293 83.7268 89.9613 87.4497 89.9641C90.8284 89.967 94.478 89.4281 98.3503 87.8933C98.9905 87.6394 99.6392 87.3573 100.293 87.0469C102.067 86.2034 103.698 85.2131 105.187 84.0987C106.098 83.4244 106.955 82.6993 107.762 81.932C107.863 81.836 107.965 81.7373 108.066 81.6386C108.269 81.4382 108.47 81.2379 108.667 81.032C108.96 80.7245 109.251 80.4113 109.524 80.0925C112.071 77.2007 113.975 73.8631 115.289 70.2999C116.843 66.0792 117.579 61.537 117.579 56.9947C117.579 52.4525 116.894 48.2206 115.583 44.1071Z" fill="#E7C8A6"/>
<path d="M79.0293 58.3715C83.6057 58.3715 87.3155 54.6604 87.3155 50.0826C87.3155 45.5048 83.6057 41.7937 79.0293 41.7937C74.453 41.7937 70.7432 45.5048 70.7432 50.0826C70.7432 54.6604 74.453 58.3715 79.0293 58.3715Z" fill="#DB7F37"/>
<path d="M38.4532 58.3715C43.0295 58.3715 46.7393 54.6604 46.7393 50.0826C46.7393 45.5048 43.0295 41.7937 38.4532 41.7937C33.8768 41.7937 30.167 45.5048 30.167 50.0826C30.167 54.6604 33.8768 58.3715 38.4532 58.3715Z" fill="#DB7F37"/>
<circle cx="79" cy="50" r="6" fill="#48261D"/>
<circle cx="38" cy="50" r="6" fill="#48261D"/>
<circle cx="77" cy="48" r="2" fill="white"/>
<circle cx="40" cy="48" r="2" fill="white"/>
</svg>
